<?xml version="1.0" encoding="UTF-8"?>
<!DOCTYPE svg PUBLIC "-//W3C//DTD SVG 1.1//EN" "http://www.w3.org/Graphics/SVG/1.1/DTD/svg11.dtd">
<!-- Creator: CorelDRAW X7 -->
<svg xmlns="http://www.w3.org/2000/svg" xml:space="preserve" width="67.7332mm" height="67.7332mm" version="1.1" style="shape-rendering:geometricPrecision; text-rendering:geometricPrecision; image-rendering:optimizeQuality; fill-rule:evenodd; clip-rule:evenodd"
viewBox="0 0 6773 6773"
 xmlns:xlink="http://www.w3.org/1999/xlink">
 <defs>
  <style type="text/css">
   <![CDATA[
    .fil0 {fill:#245E6C}
   ]]>
  </style>
 </defs>
 <g id="Layer_x0020_1">
  <metadata id="CorelCorpID_0Corel-Layer"/>
  <path class="fil0" d="M3387 0c1870,0 3386,1516 3386,3387 0,1870 -1516,3386 -3386,3386 -1871,0 -3387,-1516 -3387,-3386 0,-1871 1516,-3387 3387,-3387zm-1130 3037l1481 0c36,0 65,29 65,65 0,36 -29,66 -65,66l-1481 0c-36,0 -65,-30 -65,-66 0,-36 29,-65 65,-65zm1479 -617l0 282 259 0 237 0 -496 -540 0 258zm368 456l-455 0c-48,0 -87,-39 -87,-87l0 -505 0 -175 -1580 0c-114,0 -207,93 -207,208l0 2972c0,114 93,207 207,207l2089 0c114,0 207,-93 207,-208l0 -2412 -174 0zm-1847 600l1481 0c36,0 65,29 65,65 0,36 -29,66 -65,66l-1481 0c-36,0 -65,-30 -65,-66 0,-36 29,-65 65,-65zm0 425l1481 0c36,0 65,29 65,65 0,36 -29,65 -65,65l-1481 0c-36,0 -65,-29 -65,-65 0,-36 29,-65 65,-65zm0 432l1481 0c36,0 65,29 65,65 0,36 -29,65 -65,65l-1481 0c-36,0 -65,-29 -65,-65 0,-36 29,-65 65,-65zm2381 -1873l0 -125 -46 -49 -496 -540 -49 -53 -125 0 -1579 0c-115,0 -208,93 -208,208l0 93 472 0 1070 0 126 0 49 53 496 539 46 50 0 -435 0 2879 37 0c114,0 207,-93 207,-208l0 -2412zm361 -416l0 -125 -46 -49 -497 -540 -49 -53 -125 0 -1579 0c-115,0 -208,93 -208,208l0 92 472 0 1070 0 126 0 49 54 496 539 46 50 0 -435 0 2879 37 0c114,0 208,-93 208,-208l0 -2412z"/>
 </g>
</svg>
