<?xml version="1.0" encoding="UTF-8"?>
<!DOCTYPE svg PUBLIC "-//W3C//DTD SVG 1.1//EN" "http://www.w3.org/Graphics/SVG/1.1/DTD/svg11.dtd">
<!-- Creator: CorelDRAW X7 -->
<svg xmlns="http://www.w3.org/2000/svg" xml:space="preserve" width="67.7332mm" height="67.7332mm" version="1.1" style="shape-rendering:geometricPrecision; text-rendering:geometricPrecision; image-rendering:optimizeQuality; fill-rule:evenodd; clip-rule:evenodd"
viewBox="0 0 6773 6773"
 xmlns:xlink="http://www.w3.org/1999/xlink">
 <defs>
  <style type="text/css">
   <![CDATA[
    .fil0 {fill:#F7A3B7}
   ]]>
  </style>
 </defs>
 <g id="Layer_x0020_1">
  <metadata id="CorelCorpID_0Corel-Layer"/>
  <path class="fil0" d="M3387 0c1870,0 3386,1516 3386,3387 0,1870 -1516,3386 -3386,3386 -1871,0 -3387,-1516 -3387,-3386 0,-1871 1516,-3387 3387,-3387zm1201 4490l148 0 0 -2892c0,-41 -33,-74 -74,-74l-2551 0c-41,0 -74,33 -74,74l0 3577c0,41 33,74 74,74l1866 0 0 -148 0 -121 -1 -416c0,-41 33,-75 74,-75l313 1 225 0zm-105 148l-24 0 -334 0 0 179 0 389 568 -568 -210 0zm-217 -759l-1094 0c-41,0 -75,-33 -75,-74 0,-41 34,-74 75,-74l1094 0c41,0 74,33 74,74 0,41 -33,74 -74,74zm-1329 -296c29,29 29,76 0,105l-271 271c-14,14 -32,21 -52,21 -20,0 -39,-7 -53,-21l-106 -107c-29,-29 -29,-76 0,-105 29,-29 76,-29 105,0l54 54 218 -218c29,-29 76,-29 105,0zm1329 -420l-1094 0c-41,0 -75,-33 -75,-74 0,-41 34,-74 75,-74l1094 0c41,0 74,33 74,74 0,41 -33,74 -74,74zm-1329 -296c29,29 29,76 0,105l-271 270c-14,14 -32,22 -52,22 -20,0 -39,-8 -53,-22l-106 -106c-29,-29 -29,-76 0,-105 29,-29 76,-29 105,0l54 54 218 -218c29,-29 76,-29 105,0zm1066 -422l-831 0c-41,0 -75,-34 -75,-75 0,-41 34,-74 75,-74l831 0c41,0 74,33 74,74 0,41 -33,75 -74,75zm237 0c-41,0 -74,-34 -74,-75 0,-41 33,-74 74,-74l26 0c41,0 74,33 74,74 0,41 -33,75 -74,75l-26 0zm-1303 -192l-271 271c-14,14 -32,22 -52,22 -20,0 -39,-8 -53,-22l-106 -107c-29,-29 -29,-76 0,-105 29,-29 76,-29 105,0l54 55 218 -219c29,-29 76,-29 105,0 29,29 29,76 0,105z"/>
 </g>
</svg>
