<?xml version="1.0" encoding="UTF-8"?>
<!DOCTYPE svg PUBLIC "-//W3C//DTD SVG 1.1//EN" "http://www.w3.org/Graphics/SVG/1.1/DTD/svg11.dtd">
<!-- Creator: CorelDRAW X7 -->
<svg xmlns="http://www.w3.org/2000/svg" xml:space="preserve" width="67.7332mm" height="67.7332mm" version="1.1" style="shape-rendering:geometricPrecision; text-rendering:geometricPrecision; image-rendering:optimizeQuality; fill-rule:evenodd; clip-rule:evenodd"
viewBox="0 0 6773 6773"
 xmlns:xlink="http://www.w3.org/1999/xlink">
 <defs>
  <style type="text/css">
   <![CDATA[
    .fil0 {fill:#F7A3B7}
   ]]>
  </style>
 </defs>
 <g id="Layer_x0020_1">
  <metadata id="CorelCorpID_0Corel-Layer"/>
  <path class="fil0" d="M3387 0c1870,0 3386,1516 3386,3387 0,1870 -1516,3386 -3386,3386 -1871,0 -3387,-1516 -3387,-3386 0,-1871 1516,-3387 3387,-3387zm911 3321c16,-34 29,-69 38,-106 -81,-34 -153,-84 -213,-145 -8,-178 -79,-340 -192,-463l0 -6c0,-369 299,-668 669,-668 369,0 668,299 668,668 0,276 -166,512 -404,614 9,37 21,72 37,106 232,73 455,136 584,283 125,142 144,483 162,705l-1172 0c-25,-99 -60,-187 -111,-244 -139,-158 -378,-229 -628,-308l0 0c146,-79 262,-206 328,-360 75,-27 154,-51 234,-76zm-610 491c-16,-33 -28,-68 -37,-105 238,-102 404,-339 404,-614 0,-370 -299,-669 -668,-669 -370,0 -669,299 -669,669 0,275 167,512 405,614 -9,37 -22,72 -38,105 -232,74 -455,137 -584,283 -125,142 -144,484 -161,706l2093 0c-17,-222 -36,-564 -161,-706 -129,-146 -352,-209 -584,-283zm-1209 -491c-16,-34 -28,-69 -37,-106 80,-34 152,-84 212,-145 9,-178 80,-340 192,-463l0 -6c0,-369 -299,-668 -668,-668 -370,0 -669,299 -669,668 0,276 167,512 405,614 -9,37 -22,72 -38,106 -232,73 -455,136 -584,283 -125,142 -144,483 -161,705l1172 0c24,-99 59,-187 110,-244 139,-158 378,-229 629,-308l0 0c-146,-79 -263,-206 -329,-360 -74,-27 -154,-51 -234,-76z"/>
 </g>
</svg>
