<?xml version="1.0" encoding="UTF-8"?>
<!DOCTYPE svg PUBLIC "-//W3C//DTD SVG 1.1//EN" "http://www.w3.org/Graphics/SVG/1.1/DTD/svg11.dtd">
<!-- Creator: CorelDRAW X7 -->
<svg xmlns="http://www.w3.org/2000/svg" xml:space="preserve" width="67.7332mm" height="67.7332mm" version="1.1" style="shape-rendering:geometricPrecision; text-rendering:geometricPrecision; image-rendering:optimizeQuality; fill-rule:evenodd; clip-rule:evenodd"
viewBox="0 0 6773 6773"
 xmlns:xlink="http://www.w3.org/1999/xlink">
 <defs>
  <style type="text/css">
   <![CDATA[
    .fil0 {fill:#245E6C}
   ]]>
  </style>
 </defs>
 <g id="Layer_x0020_1">
  <metadata id="CorelCorpID_0Corel-Layer"/>
  <path class="fil0" d="M3387 0c1870,0 3386,1516 3386,3387 0,1870 -1516,3386 -3386,3386 -1871,0 -3387,-1516 -3387,-3386 0,-1871 1516,-3387 3387,-3387zm697 4090c-31,-4 -59,18 -63,49 -3,31 19,59 50,63 593,70 910,258 910,367 0,154 -602,367 -1581,367 -979,0 -1580,-213 -1580,-367 0,-109 316,-297 909,-367 31,-4 53,-32 50,-63 -4,-31 -32,-53 -63,-49 -594,70 -1009,267 -1009,479 0,239 581,480 1693,480 1112,0 1693,-241 1693,-480 0,-212 -415,-409 -1009,-479zm-694 663l866 -1250c325,-433 278,-1145 -100,-1523 -205,-205 -477,-318 -766,-318 -289,0 -561,113 -765,318 -379,378 -426,1090 -102,1521l867 1252zm10 -2413c218,0 395,177 395,395 0,218 -177,395 -395,395 -218,0 -395,-177 -395,-395 0,-218 177,-395 395,-395z"/>
 </g>
</svg>
